<?xml version="1.0" standalone="no"?>
<!DOCTYPE svg PUBLIC "-//W3C//DTD SVG 20010904//EN"
 "http://www.w3.org/TR/2001/REC-SVG-20010904/DTD/svg10.dtd">
<svg version="1.0" xmlns="http://www.w3.org/2000/svg"
 width="256.000000pt" height="256.000000pt" viewBox="0 0 256.000000 256.000000"
 preserveAspectRatio="xMidYMid meet">
<metadata>
Created by potrace 1.11, written by Peter Selinger 2001-2013
</metadata>
<g transform="translate(0.000000,256.000000) scale(0.100000,-0.100000)"
fill="#000000" stroke="none">
<path d="M0 1280 l0 -1280 1280 0 1280 0 0 1280 0 1280 -1280 0 -1280 0 0
-1280z m2480 -5 l0 -1205 -1205 0 -1205 0 0 1205 0 1205 1205 0 1205 0 0
-1205z"/>
<path d="M295 1838 c-9 -23 -135 -402 -135 -405 0 -2 15 -3 34 -3 31 0 36 4
48 43 l15 42 80 3 81 3 14 -43 c14 -41 17 -43 56 -46 30 -2 42 1 41 10 0 7
-30 101 -67 208 l-67 195 -48 3 c-32 2 -49 -1 -52 -10z m70 -168 c14 -40 23
-75 21 -77 -2 -2 -26 -3 -53 -1 l-49 3 24 78 c14 43 26 76 28 74 2 -2 15 -37
29 -77z"/>
<path d="M1907 1813 c-4 -3 -7 -21 -7 -40 0 -26 -4 -33 -20 -33 -16 0 -20 -7
-20 -30 0 -19 5 -30 14 -30 11 0 15 -23 18 -106 3 -102 4 -107 32 -130 22 -20
37 -24 70 -22 38 3 41 5 44 36 3 30 1 32 -26 32 -38 0 -42 12 -42 111 l0 79
30 0 c27 0 30 3 30 30 0 27 -3 30 -30 30 -28 0 -30 2 -30 40 0 37 -2 40 -28
40 -16 0 -32 -3 -35 -7z"/>
<path d="M608 1725 c-29 -16 -52 -72 -42 -101 15 -40 47 -64 105 -75 69 -13
87 -29 64 -53 -22 -21 -67 -20 -96 3 -16 12 -34 17 -56 14 -18 -3 -33 -8 -33
-12 0 -18 36 -55 66 -67 95 -40 204 9 204 92 0 51 -32 81 -100 95 -92 18 -117
48 -53 64 19 4 34 0 53 -13 17 -13 36 -18 53 -15 32 6 34 22 8 54 -15 19 -30
23 -82 26 -44 2 -72 -1 -91 -12z"/>
<path d="M938 1724 c-63 -34 -87 -149 -48 -230 49 -100 188 -96 231 7 13 34
13 34 -23 43 -22 5 -30 2 -39 -16 -38 -72 -109 -40 -109 49 0 55 18 92 47 99
32 8 52 -1 62 -29 8 -20 15 -23 41 -19 28 4 31 7 25 31 -3 14 -19 38 -36 54
-23 22 -39 27 -77 27 -26 -1 -59 -8 -74 -16z"/>
<path d="M1239 1713 c-77 -65 -80 -202 -4 -261 59 -46 152 -37 200 19 31 38
28 53 -10 57 -21 3 -33 -3 -46 -19 -33 -44 -119 -17 -119 38 0 23 2 23 105 23
67 0 105 4 105 11 0 42 -26 102 -57 129 -28 25 -42 30 -88 30 -44 0 -59 -5
-86 -27z m118 -38 c11 -8 23 -24 26 -35 5 -19 1 -20 -59 -20 -70 0 -79 10 -44
48 24 26 47 28 77 7z"/>
<path d="M1540 1585 l0 -155 40 0 40 0 0 104 c0 101 1 105 26 125 32 25 38 26
58 5 13 -12 16 -39 16 -125 l0 -109 41 0 41 0 -4 131 c-3 129 -3 131 -31 155
-39 33 -99 33 -132 -1 l-25 -24 0 24 c0 22 -5 25 -35 25 l-35 0 0 -155z"/>
<path d="M1360 1031 l0 -291 133 0 c191 1 250 28 306 141 27 53 31 73 31 139
0 95 -20 156 -71 213 -57 65 -99 79 -261 85 l-138 5 0 -292z m278 170 c97 -68
96 -274 -1 -345 -20 -15 -48 -22 -97 -24 l-70 -4 0 202 0 203 69 -5 c49 -4 78
-12 99 -27z"/>
<path d="M1950 1031 l0 -291 163 0 c181 0 208 8 247 72 41 68 16 182 -45 210
l-26 11 30 27 c52 48 61 133 19 193 -36 51 -69 60 -235 65 l-153 5 0 -292z
m257 189 c52 -19 64 -78 25 -122 -12 -15 -32 -18 -99 -18 l-83 0 0 68 c0 38 3
72 7 75 10 11 117 8 150 -3z m18 -244 c39 -17 54 -53 39 -95 -14 -39 -49 -51
-134 -49 l-75 3 -3 64 c-2 35 -1 70 2 77 7 19 126 18 171 0z"/>
</g>
</svg>
