<?xml version="1.0" standalone="no"?>
<!DOCTYPE svg PUBLIC "-//W3C//DTD SVG 20010904//EN"
 "http://www.w3.org/TR/2001/REC-SVG-20010904/DTD/svg10.dtd">
<svg version="1.0" xmlns="http://www.w3.org/2000/svg"
 width="260.000000pt" height="260.000000pt" viewBox="0 0 260.000000 260.000000"
 preserveAspectRatio="xMidYMid meet">
<metadata>
Created by potrace 1.11, written by Peter Selinger 2001-2013
</metadata>
<g transform="translate(0.000000,260.000000) scale(0.100000,-0.100000)"
fill="#000000" stroke="none">
<path d="M0 1300 l0 -1300 1300 0 1300 0 0 1300 0 1300 -1300 0 -1300 0 0
-1300z m2520 -5 l0 -1225 -1225 0 -1225 0 0 1225 0 1225 1225 0 1225 0 0
-1225z"/>
<path d="M207 1726 c-89 -33 -97 -56 -97 -263 0 -192 9 -225 70 -255 49 -25
145 -24 187 2 46 28 61 56 69 133 l7 67 -76 0 -76 0 -3 -62 c-2 -48 -7 -63
-18 -63 -13 0 -15 26 -15 175 0 157 2 175 17 178 15 3 18 -7 20 -70 l3 -73 70
0 70 0 -1 71 c-1 42 -8 82 -17 101 -29 55 -137 86 -210 59z"/>
<path d="M490 1465 l0 -265 70 0 70 0 0 265 0 265 -70 0 -70 0 0 -265z"/>
<path d="M690 1690 l0 -40 70 0 70 0 0 40 0 40 -70 0 -70 0 0 -40z"/>
<path d="M1420 1465 l0 -265 65 0 c38 0 65 4 65 10 0 6 13 4 30 -5 42 -22 85
-19 117 9 l28 24 0 177 0 177 -29 25 c-29 25 -74 28 -118 9 -15 -7 -17 0 -20
46 l-3 53 -67 3 -68 3 0 -266z m168 -55 c-2 -96 -7 -135 -15 -138 -10 -3 -13
29 -13 136 0 76 3 142 7 146 18 17 23 -21 21 -144z"/>
<path d="M1790 1460 l0 -260 120 0 c125 0 171 11 184 45 3 9 6 102 6 206 0
212 -6 239 -61 258 -18 6 -81 11 -140 11 l-109 0 0 -260z m174 139 c8 -41 6
-247 -3 -279 -4 -14 -15 -26 -24 -28 -15 -3 -17 12 -17 167 0 161 1 171 19
171 13 0 20 -10 25 -31z"/>
<path d="M2170 1459 l0 -261 136 4 c172 4 174 6 174 140 0 88 -1 91 -31 119
-17 16 -26 29 -21 29 6 0 18 7 26 16 21 20 22 124 2 163 -22 41 -55 51 -176
51 l-110 0 0 -261z m174 147 c10 -39 -4 -86 -25 -86 -16 0 -19 8 -19 55 0 47
3 55 19 55 12 0 21 -9 25 -24z m0 -198 c15 -57 0 -118 -29 -118 -12 0 -15 15
-15 70 0 62 2 70 19 70 11 0 21 -9 25 -22z"/>
<path d="M1052 1624 c-12 -8 -22 -10 -22 -5 0 7 -27 11 -70 11 l-70 0 0 -215
0 -215 65 0 65 0 0 161 c0 107 4 168 12 182 12 22 12 21 19 -8 4 -16 7 -99 8
-182 l1 -153 65 0 65 0 0 164 c0 90 3 171 6 180 16 43 24 -11 24 -170 l0 -174
71 0 70 0 -3 196 -3 196 -28 24 c-33 29 -71 31 -112 6 -29 -18 -31 -18 -60 0
-37 22 -73 23 -103 2z"/>
<path d="M690 1415 l0 -215 70 0 70 0 0 215 0 215 -70 0 -70 0 0 -215z"/>
</g>
</svg>
